<svg width="21" height="12" viewBox="0 0 21 12" fill="none" xmlns="http://www.w3.org/2000/svg">
<path d="M19.5158 8.30661H10.8664L11.3007 7.42206L18.5165 7.40899C18.7606 7.40899 18.9697 7.23469 19.0133 6.99358L20.0126 1.40017C20.0387 1.25347 19.9995 1.10242 19.9036 0.987671C19.8563 0.9312 19.7972 0.885711 19.7304 0.85436C19.6637 0.823009 19.591 0.806547 19.5173 0.806114L10.3377 0.775612L10.2593 0.406688C10.2099 0.17139 9.99787 0 9.75677 0H7.51272C7.37674 0 7.24632 0.0540182 7.15017 0.150171C7.05402 0.246325 7 0.376736 7 0.512718C7 0.648699 7.05402 0.77911 7.15017 0.875264C7.24632 0.971417 7.37674 1.02544 7.51272 1.02544H9.34136L9.68414 2.65509L10.528 6.74086L9.44158 8.51431C9.38516 8.59046 9.35118 8.68088 9.34348 8.77534C9.33578 8.8698 9.35467 8.96453 9.39801 9.04881C9.48516 9.22165 9.6609 9.33059 9.85553 9.33059H10.7677C10.5732 9.58887 10.4682 9.90346 10.4685 10.2268C10.4685 11.0488 11.1366 11.717 11.9587 11.717C12.7808 11.717 13.4489 11.0488 13.4489 10.2268C13.4489 9.90286 13.3414 9.58767 13.1497 9.33059H15.4896C15.2952 9.58887 15.1901 9.90346 15.1904 10.2268C15.1904 11.0488 15.8585 11.717 16.6806 11.717C17.5027 11.717 18.1709 11.0488 18.1709 10.2268C18.1709 9.90286 18.0634 9.58767 17.8716 9.33059H19.5173C19.7991 9.33059 20.03 9.1011 20.03 8.81787C20.0292 8.68203 19.9746 8.55204 19.8783 8.45626C19.782 8.36048 19.6517 8.30668 19.5158 8.30661ZM10.5513 1.78652L18.9145 1.81412L18.0953 6.40098L11.5259 6.4126L10.5513 1.78652ZM11.9587 10.6857C11.706 10.6857 11.4997 10.4795 11.4997 10.2268C11.4997 9.97403 11.706 9.76778 11.9587 9.76778C12.2114 9.76778 12.4177 9.97403 12.4177 10.2268C12.4177 10.3485 12.3693 10.4652 12.2832 10.5513C12.1972 10.6374 12.0804 10.6857 11.9587 10.6857ZM16.6806 10.6857C16.4279 10.6857 16.2217 10.4795 16.2217 10.2268C16.2217 9.97403 16.4279 9.76778 16.6806 9.76778C16.9334 9.76778 17.1396 9.97403 17.1396 10.2268C17.1396 10.3485 17.0913 10.4652 17.0052 10.5513C16.9191 10.6374 16.8024 10.6857 16.6806 10.6857Z" fill="#FFF"/>
<path fill-rule="evenodd" clip-rule="evenodd" d="M3.5 2C3.22386 2 3 2.22386 3 2.5V5H0.5C0.223858 5 0 5.22386 0 5.5C0 5.77614 0.223858 6 0.5 6H3V8.5C3 8.77614 3.22386 9 3.5 9C3.77614 9 4 8.77614 4 8.5V6H6.5C6.77614 6 7 5.77614 7 5.5C7 5.22386 6.77614 5 6.5 5H4V2.5C4 2.22386 3.77614 2 3.5 2Z" fill="#FFF"/>
</svg>
