<svg width="25" height="25" viewBox="0 0 25 25" fill="none" xmlns="http://www.w3.org/2000/svg">
<path d="M5.44708 6.65728L17.6005 18.8107C17.747 18.9572 17.9457 19.0395 18.1529 19.0395C18.3601 19.0395 18.5588 18.9572 18.7053 18.8107C18.8518 18.6642 18.9342 18.4655 18.9342 18.2583C18.9342 18.0511 18.8518 17.8523 18.7053 17.7058L6.55194 5.55243C6.40543 5.40591 6.20671 5.3236 5.99951 5.3236C5.79231 5.3236 5.5936 5.40591 5.44708 5.55243C5.30057 5.69894 5.21826 5.89765 5.21826 6.10485C5.21826 6.31205 5.30057 6.51077 5.44708 6.65728Z" fill="white"/>
<path d="M17.7059 5.29418L5.55255 17.4476C5.40604 17.5941 5.32373 17.7928 5.32373 18C5.32373 18.2072 5.40604 18.4059 5.55255 18.5524C5.69906 18.6989 5.89778 18.7813 6.10498 18.7813C6.31218 18.7813 6.51089 18.6989 6.6574 18.5524L18.8108 6.39903C18.9573 6.25252 19.0396 6.0538 19.0396 5.8466C19.0396 5.6394 18.9573 5.44069 18.8108 5.29418C18.6643 5.14766 18.4656 5.06535 18.2584 5.06535C18.0512 5.06535 17.8525 5.14766 17.7059 5.29418Z" fill="white"/>
</svg>
