<svg width="25" height="25" viewBox="0 0 25 25" fill="none" xmlns="http://www.w3.org/2000/svg">
<path d="M21.0938 10.9375V6.25" stroke="black" stroke-width="1.5" stroke-linecap="round" stroke-linejoin="round"/>
<path d="M23.4375 8.59375H18.75" stroke="black" stroke-width="1.5" stroke-linecap="round" stroke-linejoin="round"/>
<path d="M16.4062 2.34375V5.46875" stroke="black" stroke-width="1.5" stroke-linecap="round" stroke-linejoin="round"/>
<path d="M17.9688 3.90625H14.8438" stroke="black" stroke-width="1.5" stroke-linecap="round" stroke-linejoin="round"/>
<path d="M21.1622 14.9023C19.6283 15.3325 18.0076 15.3466 16.4665 14.9432C14.9254 14.5398 13.5195 13.7335 12.393 12.6071C11.2666 11.4806 10.4603 10.0747 10.0569 8.53355C9.65353 6.99245 9.66762 5.37175 10.0977 3.83789C8.5855 4.2588 7.20993 5.06858 6.10804 6.18656C5.00615 7.30454 4.2164 8.6917 3.81746 10.2099C3.41852 11.7281 3.4243 13.3243 3.83424 14.8395C4.24418 16.3548 5.04396 17.7362 6.15392 18.8462C7.26389 19.9561 8.64529 20.7559 10.1605 21.1658C11.6758 21.5758 13.272 21.5816 14.7902 21.1826C16.3084 20.7837 17.6956 19.9939 18.8135 18.892C19.9315 17.7902 20.7413 16.4146 21.1622 14.9023V14.9023Z" stroke="black" stroke-width="1.5" stroke-linecap="round" stroke-linejoin="round"/>
</svg>
