<svg xmlns="http://www.w3.org/2000/svg" width="26" height="26" viewBox="0 0 26 26" fill="none">
    <path d="M21.125 21.125H4.875C4.44402 21.125 4.0307 20.9538 3.72595 20.649C3.4212 20.3443 3.25 19.931 3.25 19.5V8.125C3.25 7.69402 3.4212 7.2807 3.72595 6.97595C4.0307 6.67121 4.44402 6.5 4.875 6.5H8.125L9.75 4.0625H16.25L17.875 6.5H21.125C21.556 6.5 21.9693 6.67121 22.274 6.97595C22.5788 7.2807 22.75 7.69402 22.75 8.125V19.5C22.75 19.931 22.5788 20.3443 22.274 20.649C21.9693 20.9538 21.556 21.125 21.125 21.125Z" stroke="white" stroke-width="1.5" stroke-linecap="round" stroke-linejoin="round"/>
    <path d="M13 17.0625C15.0193 17.0625 16.6562 15.4255 16.6562 13.4062C16.6562 11.387 15.0193 9.75 13 9.75C10.9807 9.75 9.34375 11.387 9.34375 13.4062C9.34375 15.4255 10.9807 17.0625 13 17.0625Z" stroke="white" stroke-width="1.5" stroke-linecap="round" stroke-linejoin="round"/>
</svg>