<svg width="20" height="20" viewBox="0 0 20 20" fill="none" xmlns="http://www.w3.org/2000/svg">
<path d="M11.875 8.4375H14.375" stroke="white" stroke-width="1.5" stroke-linecap="round" stroke-linejoin="round"/>
<path d="M5.625 8.4375H8.125" stroke="white" stroke-width="1.5" stroke-linecap="round" stroke-linejoin="round"/>
<path d="M6.875 7.1875V9.6875" stroke="white" stroke-width="1.5" stroke-linecap="round" stroke-linejoin="round"/>
<path d="M13.4375 4.35156L6.56254 4.375C5.60765 4.37682 4.6838 4.7143 3.95258 5.32841C3.22136 5.94252 2.72932 6.79416 2.56254 7.73437V7.73437L1.28129 14.3047C1.19902 14.7635 1.26547 15.2366 1.47095 15.655C1.67643 16.0734 2.01019 16.4153 2.42357 16.6307C2.83695 16.8461 3.30833 16.9238 3.76898 16.8525C4.22964 16.7812 4.65548 16.5647 4.98441 16.2344V16.2344L8.35941 12.5L13.4375 12.4766C14.515 12.4766 15.5483 12.0486 16.3102 11.2867C17.072 10.5248 17.5 9.4915 17.5 8.41406C17.5 7.33662 17.072 6.30331 16.3102 5.54144C15.5483 4.77957 14.515 4.35156 13.4375 4.35156V4.35156Z" stroke="white" stroke-width="1.5" stroke-linecap="round" stroke-linejoin="round"/>
<path d="M17.4375 7.71094L18.7188 14.3047C18.801 14.7635 18.7346 15.2366 18.5291 15.655C18.3236 16.0734 17.9899 16.4153 17.5765 16.6307C17.1631 16.8461 16.6917 16.9238 16.2311 16.8525C15.7704 16.7812 15.3446 16.5647 15.0156 16.2344V16.2344L11.6406 12.4844" stroke="white" stroke-width="1.5" stroke-linecap="round" stroke-linejoin="round"/>
</svg>
