<svg width="30" height="30" viewBox="0 0 23 23" fill="none" xmlns="http://www.w3.org/2000/svg">
<path d="M17.9688 17.9688H6.81641L4.0918 2.98828C4.05992 2.80888 3.96634 2.64627 3.82724 2.52857C3.68814 2.41087 3.51228 2.34549 3.33008 2.34375H1.5625" stroke="white" stroke-width="1.5" stroke-linecap="round" stroke-linejoin="round"/>
<path d="M7.8125 21.875C8.89118 21.875 9.76562 21.0006 9.76562 19.9219C9.76562 18.8432 8.89118 17.9688 7.8125 17.9688C6.73382 17.9688 5.85938 18.8432 5.85938 19.9219C5.85938 21.0006 6.73382 21.875 7.8125 21.875Z" stroke="white" stroke-width="1.5" stroke-linecap="round" stroke-linejoin="round"/>
<path d="M17.9688 21.875C19.0474 21.875 19.9219 21.0006 19.9219 19.9219C19.9219 18.8432 19.0474 17.9688 17.9688 17.9688C16.8901 17.9688 16.0156 18.8432 16.0156 19.9219C16.0156 21.0006 16.8901 21.875 17.9688 21.875Z" stroke="white" stroke-width="1.5" stroke-linecap="round" stroke-linejoin="round"/>
<path d="M6.10352 14.0625H18.3691C18.7343 14.0636 19.0882 13.936 19.3687 13.702C19.6491 13.468 19.838 13.1427 19.9023 12.7832L21.0938 6.25H4.6875" stroke="white" stroke-width="1.5" stroke-linecap="round" stroke-linejoin="round"/>
</svg>
